# xmcd
#
# Track frame offsets: 
#        150
#        12715
#        24064
#        35864
#        44724
#        56876
#        66224
#        77973
#        87666
#        98332
#        108763
#        121885
#        130423
#        144304
#        156141
#        165013
#        177888
#        187704
#        199546
#        208853
#        219610
#
# Disc length: 3105 seconds
#
# Revision: 0
# Processed by: cddbd v1.5.2PL0 Copyright (c) Steve Scherf et al.
# Submitted via: ExactAudioCopy v1.3
#
DISCID=200c1f15
DTITLE=Little Jimmy Dickens, 1954 - 55 - 56 - Little Jimmy Dickens, 1956
DYEAR=2015
DGENRE=Country
TTITLE0=Little Jimmy Dickens, 1954 - Y'all Come
TTITLE1=Little Jimmy Dickens, 1954 - Rockin' With Red
TTITLE2=Little Jimmy Dickens, 1954 - You Better Not Do That
TTITLE3=Little Jimmy Dickens, 1954 - Love Song Of The Bayou
TTITLE4=Little Jimmy Dickens, 1954 - Closing Time
TTITLE5=Little Jimmy Dickens, 1954 - Blackeyed Joe's
TTITLE6=Little Jimmy Dickens, 1954 - Take Me As I Am
TTITLE7=Little Jimmy Dickens, 1954 - Stinky, Pass That Hat Around
TTITLE8=Little Jimmy Dickens, 1954 - Conscience (Set Me Free)
TTITLE9=Little Jimmy Dickens, 1955 - Salty Boogie
TTITLE10=Little Jimmy Dickens, 1955 - A Ribbon And A Rose
TTITLE11=Little Jimmy Dickens, 1955 - When They Get Too Rough
TTITLE12=Little Jimmy Dickens, 1955 - I'm Braver Now
TTITLE13=Little Jimmy Dickens, 1955 - Are You Insured Beyond The Grave
TTITLE14=Little Jimmy Dickens, 1956 - Hey Worm (You Wanna Wiggle)
TTITLE15=Little Jimmy Dickens, 1956 - Where Did The Sunshine Go
TTITLE16=Little Jimmy Dickens, 1956 - Big Sandy
TTITLE17=Little Jimmy Dickens, 1956 - It Scares Me Half To Death
TTITLE18=Little Jimmy Dickens, 1956 - Country Boy Bounce
TTITLE19=Little Jimmy Dickens, 1956 - Cornbread And Buttermilk
TTITLE20=Little Jimmy Dickens, 1956 - I Never Had Thought It Would Hap
TTITLE20=pen To Me
EXTD=
EXTT0=
EXTT1=
EXTT2=
EXTT3=
EXTT4=
EXTT5=
EXTT6=
EXTT7=
EXTT8=
EXTT9=
EXTT10=
EXTT11=
EXTT12=
EXTT13=
EXTT14=
EXTT15=
EXTT16=
EXTT17=
EXTT18=
EXTT19=
EXTT20=
PLAYORDER=
